<mxfile host="app.diagrams.net" modified="2023-04-10T03:30:15.145Z" agent="Mozilla/5.0 (Macintosh; Intel Mac OS X 10_15_7) AppleWebKit/537.36 (KHTML, like Gecko) Chrome/111.0.0.0 Safari/537.36" etag="YnvAgh6DFIejn8IfIYeb" version="21.1.5" type="github">
  <diagram name="第 1 页" id="T0Va8UJ4iWSqnu5BUeQg">
    <mxGraphModel dx="4558" dy="2094" grid="1" gridSize="10" guides="1" tooltips="1" connect="1" arrows="1" fold="1" page="1" pageScale="1" pageWidth="827" pageHeight="1169" math="0" shadow="0">
      <root>
        <mxCell id="0" />
        <mxCell id="1" parent="0" />
        <mxCell id="EWQLthnVimHrSyFKvf6X-1" value="【1】&lt;br&gt;礼物过期时间&lt;br&gt;&amp;amp; 数量校验" style="edgeStyle=orthogonalEdgeStyle;rounded=0;orthogonalLoop=1;jettySize=auto;html=1;exitX=0.25;exitY=1;exitDx=0;exitDy=0;entryX=0.25;entryY=0;entryDx=0;entryDy=0;fontSize=14;" edge="1" parent="1" source="EWQLthnVimHrSyFKvf6X-5" target="EWQLthnVimHrSyFKvf6X-14">
          <mxGeometry relative="1" as="geometry" />
        </mxCell>
        <mxCell id="EWQLthnVimHrSyFKvf6X-2" value="【2】&lt;br&gt;写入流水&lt;br&gt;扣减数量" style="edgeStyle=orthogonalEdgeStyle;rounded=0;orthogonalLoop=1;jettySize=auto;html=1;exitX=0.75;exitY=1;exitDx=0;exitDy=0;entryX=0.75;entryY=0;entryDx=0;entryDy=0;fontSize=14;" edge="1" parent="1" source="EWQLthnVimHrSyFKvf6X-5" target="EWQLthnVimHrSyFKvf6X-14">
          <mxGeometry relative="1" as="geometry" />
        </mxCell>
        <mxCell id="EWQLthnVimHrSyFKvf6X-3" value="【3】&lt;br&gt;调用支付RPC送礼" style="edgeStyle=orthogonalEdgeStyle;rounded=0;orthogonalLoop=1;jettySize=auto;html=1;exitX=1;exitY=0.5;exitDx=0;exitDy=0;fontSize=14;" edge="1" parent="1" source="EWQLthnVimHrSyFKvf6X-5" target="EWQLthnVimHrSyFKvf6X-20">
          <mxGeometry relative="1" as="geometry" />
        </mxCell>
        <mxCell id="EWQLthnVimHrSyFKvf6X-4" value="【4】&lt;br&gt;发送礼物Feed" style="rounded=0;orthogonalLoop=1;jettySize=auto;html=1;exitX=0.5;exitY=0;exitDx=0;exitDy=0;entryX=0.5;entryY=1;entryDx=0;entryDy=0;fontSize=14;" edge="1" parent="1" source="EWQLthnVimHrSyFKvf6X-20" target="EWQLthnVimHrSyFKvf6X-22">
          <mxGeometry relative="1" as="geometry" />
        </mxCell>
        <mxCell id="EWQLthnVimHrSyFKvf6X-5" value="" style="rounded=1;whiteSpace=wrap;html=1;fontSize=14;labelBackgroundColor=none;fillColor=#E6E6E6;strokeColor=#000000;dashed=1;" vertex="1" parent="1">
          <mxGeometry x="90" y="340" width="360" height="120" as="geometry" />
        </mxCell>
        <mxCell id="EWQLthnVimHrSyFKvf6X-6" value="&lt;span&gt;选择背包礼物送礼&lt;/span&gt;" style="edgeStyle=orthogonalEdgeStyle;rounded=0;orthogonalLoop=1;jettySize=auto;html=1;exitX=0.5;exitY=0.5;exitDx=0;exitDy=0;exitPerimeter=0;entryX=0;entryY=0.5;entryDx=0;entryDy=0;fontSize=14;" edge="1" parent="1" source="EWQLthnVimHrSyFKvf6X-7" target="EWQLthnVimHrSyFKvf6X-9">
          <mxGeometry relative="1" as="geometry" />
        </mxCell>
        <mxCell id="EWQLthnVimHrSyFKvf6X-7" value="观众" style="shape=umlActor;verticalLabelPosition=bottom;labelBackgroundColor=#ffffff;verticalAlign=top;html=1;outlineConnect=0;fontSize=14;" vertex="1" parent="1">
          <mxGeometry x="-60" y="140" width="30" height="60" as="geometry" />
        </mxCell>
        <mxCell id="EWQLthnVimHrSyFKvf6X-8" value="&lt;span&gt;/consume接口&lt;/span&gt;" style="edgeStyle=orthogonalEdgeStyle;rounded=0;orthogonalLoop=1;jettySize=auto;html=1;exitX=0.5;exitY=1;exitDx=0;exitDy=0;fontSize=14;" edge="1" parent="1" source="EWQLthnVimHrSyFKvf6X-9" target="EWQLthnVimHrSyFKvf6X-5">
          <mxGeometry relative="1" as="geometry" />
        </mxCell>
        <mxCell id="EWQLthnVimHrSyFKvf6X-9" value="APP" style="ellipse;whiteSpace=wrap;html=1;aspect=fixed;fontSize=14;fillColor=#bac8d3;strokeColor=#23445d;" vertex="1" parent="1">
          <mxGeometry x="230" y="130" width="80" height="80" as="geometry" />
        </mxCell>
        <mxCell id="EWQLthnVimHrSyFKvf6X-10" value="API" style="ellipse;whiteSpace=wrap;html=1;aspect=fixed;fontSize=14;fillColor=#e1d5e7;strokeColor=#9673a6;" vertex="1" parent="1">
          <mxGeometry x="110" y="360" width="80" height="80" as="geometry" />
        </mxCell>
        <mxCell id="EWQLthnVimHrSyFKvf6X-11" value="API" style="ellipse;whiteSpace=wrap;html=1;aspect=fixed;fontSize=14;fillColor=#e1d5e7;strokeColor=#9673a6;" vertex="1" parent="1">
          <mxGeometry x="230" y="360" width="80" height="80" as="geometry" />
        </mxCell>
        <mxCell id="EWQLthnVimHrSyFKvf6X-12" value="API" style="ellipse;whiteSpace=wrap;html=1;aspect=fixed;fontSize=14;fillColor=#e1d5e7;strokeColor=#9673a6;" vertex="1" parent="1">
          <mxGeometry x="350" y="360" width="80" height="80" as="geometry" />
        </mxCell>
        <mxCell id="EWQLthnVimHrSyFKvf6X-13" value="消费礼物流水表Binlog" style="edgeStyle=orthogonalEdgeStyle;rounded=0;orthogonalLoop=1;jettySize=auto;html=1;exitX=0.5;exitY=1;exitDx=0;exitDy=0;fontSize=14;" edge="1" parent="1" source="EWQLthnVimHrSyFKvf6X-14" target="EWQLthnVimHrSyFKvf6X-19">
          <mxGeometry relative="1" as="geometry" />
        </mxCell>
        <mxCell id="EWQLthnVimHrSyFKvf6X-14" value="" style="rounded=1;whiteSpace=wrap;html=1;fontSize=14;labelBackgroundColor=none;fillColor=#E6E6E6;strokeColor=#000000;dashed=1;" vertex="1" parent="1">
          <mxGeometry x="90" y="650" width="360" height="120" as="geometry" />
        </mxCell>
        <mxCell id="EWQLthnVimHrSyFKvf6X-15" value="DB" style="shape=cylinder;whiteSpace=wrap;html=1;boundedLbl=1;backgroundOutline=1;labelBackgroundColor=none;strokeColor=#d79b00;fillColor=#ffe6cc;fontSize=14;" vertex="1" parent="1">
          <mxGeometry x="120" y="670" width="60" height="80" as="geometry" />
        </mxCell>
        <mxCell id="EWQLthnVimHrSyFKvf6X-16" value="DB" style="shape=cylinder;whiteSpace=wrap;html=1;boundedLbl=1;backgroundOutline=1;labelBackgroundColor=none;strokeColor=#d79b00;fillColor=#ffe6cc;fontSize=14;" vertex="1" parent="1">
          <mxGeometry x="240" y="670" width="60" height="80" as="geometry" />
        </mxCell>
        <mxCell id="EWQLthnVimHrSyFKvf6X-17" value="DB" style="shape=cylinder;whiteSpace=wrap;html=1;boundedLbl=1;backgroundOutline=1;labelBackgroundColor=none;strokeColor=#d79b00;fillColor=#ffe6cc;fontSize=14;" vertex="1" parent="1">
          <mxGeometry x="360" y="670" width="60" height="80" as="geometry" />
        </mxCell>
        <mxCell id="EWQLthnVimHrSyFKvf6X-18" value="对账" style="edgeStyle=orthogonalEdgeStyle;rounded=0;orthogonalLoop=1;jettySize=auto;html=1;exitX=0;exitY=0.5;exitDx=0;exitDy=0;entryX=1;entryY=0.5;entryDx=0;entryDy=0;fontSize=14;" edge="1" parent="1" source="EWQLthnVimHrSyFKvf6X-19" target="EWQLthnVimHrSyFKvf6X-32">
          <mxGeometry relative="1" as="geometry" />
        </mxCell>
        <mxCell id="EWQLthnVimHrSyFKvf6X-19" value="BinlogResolver" style="rounded=0;whiteSpace=wrap;html=1;labelBackgroundColor=none;strokeColor=#82b366;fillColor=#d5e8d4;fontSize=14;" vertex="1" parent="1">
          <mxGeometry x="210" y="960" width="120" height="60" as="geometry" />
        </mxCell>
        <mxCell id="EWQLthnVimHrSyFKvf6X-20" value="送礼RPC" style="rounded=1;whiteSpace=wrap;html=1;labelBackgroundColor=none;strokeColor=#b85450;fillColor=#f8cecc;fontSize=14;" vertex="1" parent="1">
          <mxGeometry x="660" y="370" width="120" height="60" as="geometry" />
        </mxCell>
        <mxCell id="EWQLthnVimHrSyFKvf6X-21" value="下发礼物Feed" style="edgeStyle=none;rounded=0;orthogonalLoop=1;jettySize=auto;html=1;exitX=0;exitY=0.5;exitDx=0;exitDy=0;entryX=1;entryY=0.5;entryDx=0;entryDy=0;fontSize=14;" edge="1" parent="1" source="EWQLthnVimHrSyFKvf6X-22" target="EWQLthnVimHrSyFKvf6X-9">
          <mxGeometry relative="1" as="geometry" />
        </mxCell>
        <mxCell id="EWQLthnVimHrSyFKvf6X-22" value="长连接" style="rounded=1;whiteSpace=wrap;html=1;labelBackgroundColor=none;strokeColor=#6c8ebf;fillColor=#dae8fc;fontSize=14;" vertex="1" parent="1">
          <mxGeometry x="660" y="140" width="120" height="60" as="geometry" />
        </mxCell>
        <mxCell id="EWQLthnVimHrSyFKvf6X-23" value="写入流水&lt;br&gt;增加数量" style="edgeStyle=none;rounded=0;orthogonalLoop=1;jettySize=auto;html=1;exitX=1;exitY=0.5;exitDx=0;exitDy=0;entryX=0;entryY=0.5;entryDx=0;entryDy=0;fontSize=14;" edge="1" parent="1" source="EWQLthnVimHrSyFKvf6X-24" target="EWQLthnVimHrSyFKvf6X-14">
          <mxGeometry relative="1" as="geometry" />
        </mxCell>
        <mxCell id="EWQLthnVimHrSyFKvf6X-24" value="Transfer RPC" style="rounded=1;whiteSpace=wrap;html=1;labelBackgroundColor=none;strokeColor=#b85450;fillColor=#f8cecc;fontSize=14;" vertex="1" parent="1">
          <mxGeometry x="-220" y="680" width="120" height="60" as="geometry" />
        </mxCell>
        <mxCell id="EWQLthnVimHrSyFKvf6X-25" value="发送背包礼物" style="edgeStyle=orthogonalEdgeStyle;rounded=0;orthogonalLoop=1;jettySize=auto;html=1;exitX=0.5;exitY=1;exitDx=0;exitDy=0;fontSize=14;" edge="1" parent="1" source="EWQLthnVimHrSyFKvf6X-27" target="EWQLthnVimHrSyFKvf6X-24">
          <mxGeometry relative="1" as="geometry">
            <Array as="points">
              <mxPoint x="-280" y="560" />
              <mxPoint x="-160" y="560" />
            </Array>
          </mxGeometry>
        </mxCell>
        <mxCell id="EWQLthnVimHrSyFKvf6X-26" value="写入流水" style="edgeStyle=orthogonalEdgeStyle;rounded=0;orthogonalLoop=1;jettySize=auto;html=1;exitX=0.5;exitY=1;exitDx=0;exitDy=0;entryX=0.5;entryY=0;entryDx=0;entryDy=0;fontSize=14;" edge="1" parent="1" source="EWQLthnVimHrSyFKvf6X-27" target="EWQLthnVimHrSyFKvf6X-29">
          <mxGeometry relative="1" as="geometry">
            <Array as="points">
              <mxPoint x="-280" y="560" />
              <mxPoint x="-383" y="560" />
            </Array>
          </mxGeometry>
        </mxCell>
        <mxCell id="EWQLthnVimHrSyFKvf6X-27" value="业务方服务" style="rounded=1;whiteSpace=wrap;html=1;labelBackgroundColor=none;strokeColor=#0e8088;fillColor=#b0e3e6;fontSize=14;" vertex="1" parent="1">
          <mxGeometry x="-340" y="370" width="120" height="60" as="geometry" />
        </mxCell>
        <mxCell id="EWQLthnVimHrSyFKvf6X-28" style="edgeStyle=orthogonalEdgeStyle;rounded=0;orthogonalLoop=1;jettySize=auto;html=1;exitX=0.5;exitY=1;exitDx=0;exitDy=0;fontSize=14;" edge="1" parent="1" source="EWQLthnVimHrSyFKvf6X-29" target="EWQLthnVimHrSyFKvf6X-31">
          <mxGeometry relative="1" as="geometry" />
        </mxCell>
        <mxCell id="EWQLthnVimHrSyFKvf6X-29" value="业务方&lt;br&gt;DB" style="shape=cylinder;whiteSpace=wrap;html=1;boundedLbl=1;backgroundOutline=1;labelBackgroundColor=none;strokeColor=#d79b00;fillColor=#ffe6cc;fontSize=14;" vertex="1" parent="1">
          <mxGeometry x="-413" y="670" width="60" height="80" as="geometry" />
        </mxCell>
        <mxCell id="EWQLthnVimHrSyFKvf6X-30" value="对账" style="edgeStyle=orthogonalEdgeStyle;rounded=0;orthogonalLoop=1;jettySize=auto;html=1;exitX=1;exitY=0.5;exitDx=0;exitDy=0;entryX=0;entryY=0.5;entryDx=0;entryDy=0;fontSize=14;" edge="1" parent="1" source="EWQLthnVimHrSyFKvf6X-31" target="EWQLthnVimHrSyFKvf6X-32">
          <mxGeometry relative="1" as="geometry" />
        </mxCell>
        <mxCell id="EWQLthnVimHrSyFKvf6X-31" value="业务方BinlogResolver" style="rounded=0;whiteSpace=wrap;html=1;labelBackgroundColor=none;strokeColor=#82b366;fillColor=#d5e8d4;fontSize=14;" vertex="1" parent="1">
          <mxGeometry x="-443" y="960" width="120" height="60" as="geometry" />
        </mxCell>
        <mxCell id="EWQLthnVimHrSyFKvf6X-32" value="对账中台" style="rounded=1;whiteSpace=wrap;html=1;labelBackgroundColor=none;strokeColor=#6c8ebf;fillColor=#dae8fc;fontSize=14;" vertex="1" parent="1">
          <mxGeometry x="-130" y="960" width="120" height="60" as="geometry" />
        </mxCell>
        <mxCell id="EWQLthnVimHrSyFKvf6X-33" value="写入流水&lt;br&gt;扣减数量" style="edgeStyle=orthogonalEdgeStyle;rounded=0;orthogonalLoop=1;jettySize=auto;html=1;exitX=0;exitY=0.5;exitDx=0;exitDy=0;entryX=1;entryY=0.5;entryDx=0;entryDy=0;" edge="1" parent="1" source="EWQLthnVimHrSyFKvf6X-34" target="EWQLthnVimHrSyFKvf6X-14">
          <mxGeometry relative="1" as="geometry" />
        </mxCell>
        <mxCell id="EWQLthnVimHrSyFKvf6X-34" value="过期定时任务" style="rounded=0;whiteSpace=wrap;html=1;labelBackgroundColor=none;strokeColor=#23445d;fillColor=#bac8d3;fontSize=14;" vertex="1" parent="1">
          <mxGeometry x="660" y="680" width="120" height="60" as="geometry" />
        </mxCell>
        <mxCell id="EWQLthnVimHrSyFKvf6X-35" value="&lt;font style=&quot;font-size: 14px&quot;&gt;业务方A&lt;/font&gt;" style="rounded=0;whiteSpace=wrap;html=1;fillColor=#dae8fc;strokeColor=#6c8ebf;" vertex="1" parent="1">
          <mxGeometry x="1160" y="370" width="120" height="60" as="geometry" />
        </mxCell>
        <mxCell id="EWQLthnVimHrSyFKvf6X-36" value="" style="edgeStyle=orthogonalEdgeStyle;rounded=0;orthogonalLoop=1;jettySize=auto;html=1;" edge="1" parent="1" source="EWQLthnVimHrSyFKvf6X-37">
          <mxGeometry relative="1" as="geometry">
            <mxPoint x="1400" y="500" as="targetPoint" />
          </mxGeometry>
        </mxCell>
        <mxCell id="EWQLthnVimHrSyFKvf6X-37" value="&lt;span style=&quot;font-size: 14px;&quot;&gt;业务方B&lt;/span&gt;" style="rounded=0;whiteSpace=wrap;html=1;fillColor=#dae8fc;strokeColor=#6c8ebf;" vertex="1" parent="1">
          <mxGeometry x="1160" y="470" width="120" height="60" as="geometry" />
        </mxCell>
        <mxCell id="EWQLthnVimHrSyFKvf6X-38" value="&lt;span style=&quot;font-size: 14px;&quot;&gt;业务方C&lt;/span&gt;" style="rounded=0;whiteSpace=wrap;html=1;fillColor=#dae8fc;strokeColor=#6c8ebf;" vertex="1" parent="1">
          <mxGeometry x="1160" y="570" width="120" height="60" as="geometry" />
        </mxCell>
        <mxCell id="EWQLthnVimHrSyFKvf6X-39" value="&lt;font style=&quot;font-size: 14px&quot;&gt;对账中台&lt;/font&gt;" style="rounded=0;whiteSpace=wrap;html=1;fillColor=#fff2cc;strokeColor=#d6b656;" vertex="1" parent="1">
          <mxGeometry x="1550" y="300" width="120" height="60" as="geometry" />
        </mxCell>
        <mxCell id="EWQLthnVimHrSyFKvf6X-40" value="&lt;span style=&quot;font-size: 14px&quot;&gt;支付系统&lt;/span&gt;" style="rounded=0;whiteSpace=wrap;html=1;fillColor=#ffe6cc;strokeColor=#d79b00;" vertex="1" parent="1">
          <mxGeometry x="1690" y="470" width="120" height="60" as="geometry" />
        </mxCell>
        <mxCell id="EWQLthnVimHrSyFKvf6X-41" value="" style="endArrow=classic;html=1;exitX=1;exitY=0.5;exitDx=0;exitDy=0;entryX=0;entryY=0;entryDx=0;entryDy=0;" edge="1" parent="1" source="EWQLthnVimHrSyFKvf6X-35" target="EWQLthnVimHrSyFKvf6X-51">
          <mxGeometry width="50" height="50" relative="1" as="geometry">
            <mxPoint x="1360" y="640" as="sourcePoint" />
            <mxPoint x="1400" y="460" as="targetPoint" />
          </mxGeometry>
        </mxCell>
        <mxCell id="EWQLthnVimHrSyFKvf6X-42" value="" style="endArrow=classic;html=1;exitX=1;exitY=0.5;exitDx=0;exitDy=0;entryX=0;entryY=1;entryDx=0;entryDy=0;" edge="1" parent="1" source="EWQLthnVimHrSyFKvf6X-38" target="EWQLthnVimHrSyFKvf6X-51">
          <mxGeometry width="50" height="50" relative="1" as="geometry">
            <mxPoint x="1360" y="640" as="sourcePoint" />
            <mxPoint x="1408.02" y="535.04" as="targetPoint" />
          </mxGeometry>
        </mxCell>
        <mxCell id="EWQLthnVimHrSyFKvf6X-43" value="发背包礼物" style="text;html=1;align=center;verticalAlign=middle;resizable=0;points=[];autosize=1;" vertex="1" parent="1">
          <mxGeometry x="1315" y="400" width="80" height="30" as="geometry" />
        </mxCell>
        <mxCell id="EWQLthnVimHrSyFKvf6X-44" value="&lt;span style=&quot;color: rgba(0, 0, 0, 0); font-family: monospace; font-size: 0px; text-align: start;&quot;&gt;%3CmxGraphModel%3E%3Croot%3E%3CmxCell%20id%3D%220%22%2F%3E%3CmxCell%20id%3D%221%22%20parent%3D%220%22%2F%3E%3CmxCell%20id%3D%222%22%20value%3D%22%E5%8F%91%E8%83%8C%E5%8C%85%E7%A4%BC%E7%89%A9%22%20style%3D%22text%3Bhtml%3D1%3Balign%3Dcenter%3BverticalAlign%3Dmiddle%3Bresizable%3D0%3Bpoints%3D%5B%5D%3Bautosize%3D1%3B%22%20vertex%3D%221%22%20parent%3D%221%22%3E%3CmxGeometry%20x%3D%22355%22%20y%3D%22365%22%20width%3D%2280%22%20height%3D%2230%22%20as%3D%22geometry%22%2F%3E%3C%2FmxCell%3E%3C%2Froot%3E%3C%2FmxGraphModel%3E&lt;/span&gt;" style="text;html=1;align=center;verticalAlign=middle;resizable=0;points=[];autosize=1;" vertex="1" parent="1">
          <mxGeometry x="1345" y="547" width="20" height="30" as="geometry" />
        </mxCell>
        <mxCell id="EWQLthnVimHrSyFKvf6X-45" value="发背包礼物" style="text;html=1;align=center;verticalAlign=middle;resizable=0;points=[];autosize=1;" vertex="1" parent="1">
          <mxGeometry x="1315" y="475" width="80" height="30" as="geometry" />
        </mxCell>
        <mxCell id="EWQLthnVimHrSyFKvf6X-46" value="发背包礼物" style="text;html=1;align=center;verticalAlign=middle;resizable=0;points=[];autosize=1;" vertex="1" parent="1">
          <mxGeometry x="1315" y="547" width="80" height="30" as="geometry" />
        </mxCell>
        <mxCell id="EWQLthnVimHrSyFKvf6X-47" value="" style="edgeStyle=orthogonalEdgeStyle;rounded=0;orthogonalLoop=1;jettySize=auto;html=1;" edge="1" parent="1" source="EWQLthnVimHrSyFKvf6X-51" target="EWQLthnVimHrSyFKvf6X-40">
          <mxGeometry relative="1" as="geometry" />
        </mxCell>
        <mxCell id="EWQLthnVimHrSyFKvf6X-48" value="用户送出背包礼物" style="edgeLabel;html=1;align=center;verticalAlign=middle;resizable=0;points=[];" vertex="1" connectable="0" parent="EWQLthnVimHrSyFKvf6X-47">
          <mxGeometry x="-0.2923" relative="1" as="geometry">
            <mxPoint x="20" as="offset" />
          </mxGeometry>
        </mxCell>
        <mxCell id="EWQLthnVimHrSyFKvf6X-49" value="" style="edgeStyle=orthogonalEdgeStyle;curved=1;rounded=0;orthogonalLoop=1;jettySize=auto;html=1;dashed=1;" edge="1" parent="1" source="EWQLthnVimHrSyFKvf6X-51" target="EWQLthnVimHrSyFKvf6X-57">
          <mxGeometry relative="1" as="geometry" />
        </mxCell>
        <mxCell id="EWQLthnVimHrSyFKvf6X-50" value="自我对账" style="edgeLabel;html=1;align=center;verticalAlign=middle;resizable=0;points=[];" vertex="1" connectable="0" parent="EWQLthnVimHrSyFKvf6X-49">
          <mxGeometry x="-0.3077" y="4" relative="1" as="geometry">
            <mxPoint y="1" as="offset" />
          </mxGeometry>
        </mxCell>
        <mxCell id="EWQLthnVimHrSyFKvf6X-51" value="&lt;font style=&quot;font-size: 14px&quot;&gt;背包系统&lt;/font&gt;" style="rounded=0;whiteSpace=wrap;html=1;fillColor=#f8cecc;strokeColor=#b85450;" vertex="1" parent="1">
          <mxGeometry x="1400" y="470" width="120" height="60" as="geometry" />
        </mxCell>
        <mxCell id="EWQLthnVimHrSyFKvf6X-52" value="" style="endArrow=classic;html=1;rounded=0;exitX=1;exitY=0.5;exitDx=0;exitDy=0;entryX=0;entryY=0.5;entryDx=0;entryDy=0;edgeStyle=orthogonalEdgeStyle;curved=1;dashed=1;" edge="1" parent="1" source="EWQLthnVimHrSyFKvf6X-35" target="EWQLthnVimHrSyFKvf6X-39">
          <mxGeometry width="50" height="50" relative="1" as="geometry">
            <mxPoint x="1420" y="510" as="sourcePoint" />
            <mxPoint x="1470" y="460" as="targetPoint" />
            <Array as="points">
              <mxPoint x="1280" y="330" />
            </Array>
          </mxGeometry>
        </mxCell>
        <mxCell id="EWQLthnVimHrSyFKvf6X-53" value="业务方发放记录" style="edgeLabel;html=1;align=center;verticalAlign=middle;resizable=0;points=[];" vertex="1" connectable="0" parent="EWQLthnVimHrSyFKvf6X-52">
          <mxGeometry x="-0.0133" y="-2" relative="1" as="geometry">
            <mxPoint x="7" y="8" as="offset" />
          </mxGeometry>
        </mxCell>
        <mxCell id="EWQLthnVimHrSyFKvf6X-54" value="背包发放记录" style="endArrow=classic;html=1;rounded=0;curved=1;entryX=0;entryY=0.5;entryDx=0;entryDy=0;exitX=0.25;exitY=0;exitDx=0;exitDy=0;edgeStyle=orthogonalEdgeStyle;dashed=1;" edge="1" parent="1" source="EWQLthnVimHrSyFKvf6X-51" target="EWQLthnVimHrSyFKvf6X-39">
          <mxGeometry x="-0.3077" y="-20" width="50" height="50" relative="1" as="geometry">
            <mxPoint x="1420" y="510" as="sourcePoint" />
            <mxPoint x="1470" y="460" as="targetPoint" />
            <mxPoint as="offset" />
          </mxGeometry>
        </mxCell>
        <mxCell id="EWQLthnVimHrSyFKvf6X-55" value="支付记录" style="endArrow=classic;html=1;rounded=0;curved=1;exitX=0.25;exitY=0;exitDx=0;exitDy=0;entryX=0.5;entryY=1;entryDx=0;entryDy=0;edgeStyle=orthogonalEdgeStyle;dashed=1;" edge="1" parent="1" source="EWQLthnVimHrSyFKvf6X-40" target="EWQLthnVimHrSyFKvf6X-39">
          <mxGeometry width="50" height="50" relative="1" as="geometry">
            <mxPoint x="1420" y="510" as="sourcePoint" />
            <mxPoint x="1470" y="460" as="targetPoint" />
          </mxGeometry>
        </mxCell>
        <mxCell id="EWQLthnVimHrSyFKvf6X-56" value="用户消费记录" style="endArrow=classic;html=1;rounded=0;curved=1;entryX=0.5;entryY=1;entryDx=0;entryDy=0;exitX=0.75;exitY=0;exitDx=0;exitDy=0;edgeStyle=orthogonalEdgeStyle;dashed=1;" edge="1" parent="1" source="EWQLthnVimHrSyFKvf6X-51" target="EWQLthnVimHrSyFKvf6X-39">
          <mxGeometry width="50" height="50" relative="1" as="geometry">
            <mxPoint x="1420" y="510" as="sourcePoint" />
            <mxPoint x="1470" y="460" as="targetPoint" />
          </mxGeometry>
        </mxCell>
        <mxCell id="EWQLthnVimHrSyFKvf6X-57" value="db" style="shape=cylinder3;whiteSpace=wrap;html=1;boundedLbl=1;backgroundOutline=1;size=15;fillColor=#e1d5e7;strokeColor=#9673a6;" vertex="1" parent="1">
          <mxGeometry x="1440" y="585" width="60" height="80" as="geometry" />
        </mxCell>
        <mxCell id="EWQLthnVimHrSyFKvf6X-59" value="&lt;meta charset=&quot;utf-8&quot;&gt;&lt;span data-source-doc-id=&quot;fcAA1dJSMC6Ypv6BkzYCkOrtA&quot; id=&quot;clipboard-source-id-prefix-%880ffaeedc4-6936-4a48-466b-08101bae96dc&quot; style=&quot;font-size: 15px; font-family: Arial, &amp;quot;Microsoft YaHei&amp;quot;, 微软雅黑, 黑体, Heiti, sans-serif, SimSun, 宋体, serif; color: rgb(0, 0, 0); background-color: transparent; font-weight: normal; font-style: normal; font-variant: normal; text-decoration: none; vertical-align: baseline;&quot;&gt;&lt;img style=&quot;border: none; transform: rotate(0.00rad); -webkit-transform: rotate(0.00rad);&quot; height=&quot;367px;&quot; width=&quot;522px;&quot; src=&quot;https://docs.corp.kuaishou.com/image/api/external/load/out?code=fcAA1dJSMC6Ypv6BkzYCkOrtA:8103337829194578296fcAA1dJSMC6Ypv6BkzYCkOrtA:1681099178374&quot;&gt;&lt;/span&gt;" style="text;whiteSpace=wrap;html=1;" vertex="1" parent="1">
          <mxGeometry x="1260" y="860" width="560" height="390" as="geometry" />
        </mxCell>
        <mxCell id="EWQLthnVimHrSyFKvf6X-60" value="&lt;meta charset=&quot;utf-8&quot;&gt;&lt;span data-source-doc-id=&quot;fcAA1dJSMC6Ypv6BkzYCkOrtA&quot; id=&quot;clipboard-source-id-prefix-%880ffaeedc4-6936-82f2-265a-2ec7bd81b42b&quot; style=&quot;font-size: 15px; font-family: Arial, &amp;quot;Microsoft YaHei&amp;quot;, 微软雅黑, 黑体, Heiti, sans-serif, SimSun, 宋体, serif; color: rgb(0, 0, 0); background-color: transparent; font-weight: normal; font-style: normal; font-variant: normal; text-decoration: none; vertical-align: baseline;&quot;&gt;&lt;img style=&quot;border: none; transform: rotate(0.00rad); -webkit-transform: rotate(0.00rad);&quot; height=&quot;458px;&quot; width=&quot;542px;&quot; src=&quot;https://docs.corp.kuaishou.com/image/api/external/load/out?code=fcAA1dJSMC6Ypv6BkzYCkOrtA:-6850877776334157306fcAA1dJSMC6Ypv6BkzYCkOrtA:1681099192881&quot;&gt;&lt;/span&gt;" style="text;whiteSpace=wrap;html=1;" vertex="1" parent="1">
          <mxGeometry x="1270" y="1440" width="560" height="490" as="geometry" />
        </mxCell>
        <mxCell id="EWQLthnVimHrSyFKvf6X-61" value="&lt;meta charset=&quot;utf-8&quot;&gt;&lt;span data-source-doc-id=&quot;fcAA1dJSMC6Ypv6BkzYCkOrtA&quot; id=&quot;clipboard-source-id-prefix-%880ffaeedc4-6936-c019-783e-e8abf2e3611b&quot; style=&quot;font-size: 15px; font-family: Arial, &amp;quot;Microsoft YaHei&amp;quot;, 微软雅黑, 黑体, Heiti, sans-serif, SimSun, 宋体, serif; color: rgb(0, 0, 0); background-color: transparent; font-weight: normal; font-style: normal; font-variant: normal; text-decoration: none; vertical-align: baseline;&quot;&gt;&lt;img style=&quot;border: none; transform: rotate(0.00rad); -webkit-transform: rotate(0.00rad);&quot; height=&quot;402px;&quot; width=&quot;469px;&quot; src=&quot;https://docs.corp.kuaishou.com/image/api/external/load/out?code=fcAA1dJSMC6Ypv6BkzYCkOrtA:9014493614051417900fcAA1dJSMC6Ypv6BkzYCkOrtA:1681099208535&quot;&gt;&lt;/span&gt;" style="text;whiteSpace=wrap;html=1;" vertex="1" parent="1">
          <mxGeometry x="1330" y="2140" width="500" height="430" as="geometry" />
        </mxCell>
      </root>
    </mxGraphModel>
  </diagram>
</mxfile>
